<?xml version="1.0" encoding="UTF-8" standalone="no"?>
<!DOCTYPE svg PUBLIC "-//W3C//DTD SVG 1.1//EN" "http://www.w3.org/Graphics/SVG/1.1/DTD/svg11.dtd">
<svg width="100%" height="100%" viewBox="0 0 14 14" version="1.1" xmlns="http://www.w3.org/2000/svg" xmlns:xlink="http://www.w3.org/1999/xlink" xml:space="preserve" xmlns:serif="http://www.serif.com/" style="fill-rule:evenodd;clip-rule:evenodd;stroke-linejoin:round;stroke-miterlimit:2;">
    <g transform="matrix(-1.39961,1.71738e-16,-1.76942e-16,-1.44594,15.7134,16.0406)">
        <path d="M6.191,2.794L9.763,8.327L2.618,8.327L6.191,2.794Z"/>
        <path d="M6.494,2.611C6.429,2.51 6.314,2.449 6.191,2.449C6.068,2.449 5.953,2.51 5.888,2.611L2.316,8.144C2.247,8.251 2.243,8.385 2.306,8.495C2.369,8.605 2.489,8.673 2.618,8.673L9.763,8.673C9.893,8.673 10.013,8.605 10.076,8.495C10.139,8.385 10.135,8.251 10.066,8.144L6.494,2.611ZM6.191,2.794L9.763,8.327L2.618,8.327L6.191,2.794Z"/>
    </g>
</svg>
